<svg version="1.1" id="Layer_1" xmlns="http://www.w3.org/2000/svg" xmlns:xlink="http://www.w3.org/1999/xlink" x="0px" y="0px"
viewBox="0 0 728.63 132.88" style="enable-background:new 0 0 728.63 132.88;" xml:space="preserve">
<style type="text/css">
.st0{enable-background:new    ;}
.st1{fill:#0057DC;}
</style>
<g>
<g class="st0">
<g>
<g>
<text transform="matrix(1 0 0 1 2129.688 -910.4341)"><tspan x="0" y="0" style="fill:#0057DC; font-family:'GilmerBold'; font-size:17.5px; letter-spacing:3;">C</tspan><tspan x="13.21" y="0" style="fill:#0057DC; font-family:'GilmerBold'; font-size:17.5px; letter-spacing:3;">A</tspan><tspan x="27.42" y="0" style="fill:#0057DC; font-family:'GilmerBold'; font-size:17.5px;">P</tspan></text>
<text transform="matrix(1 0 0 1 2177.4243 -910.4341)"><tspan x="0" y="0" style="fill:#0057DC; font-family:'GilmerBold'; font-size:25px; letter-spacing:5;">.</tspan><tspan x="10.17" y="0" style="fill:#0057DC; font-family:'GilmerBold'; font-size:25px;"> </tspan></text>
<text transform="matrix(1 0 0 1 2199.8872 -910.4341)" style="fill:#0057DC; font-family:'GilmerBold'; font-size:21px;">2</text>
</g>
</g>
</g>
</g>
<g>
<polygon class="st1" points="455.41,0.83 424.11,64.21 392.81,0.83 335.73,0.83 304.44,64.21 273.14,0.83 239.67,0.83
288.17,97.16 289.03,98.88 289.03,101.52 289.03,132.06 319.84,132.06 319.84,101.52 319.84,98.88 320.71,97.16 364.28,10.62
407.84,97.16 408.71,98.88 408.71,101.52 408.71,132.06 439.52,132.06 439.52,101.52 439.52,98.88 440.39,97.16 488.89,0.83 "/>
<polygon class="st1" points="647.95,0.83 609.34,0.83 658.89,63.01 605.58,132.06 643.27,132.05 695,64.71 695.96,63.46
695.58,62.96 "/>
<polygon class="st1" points="696.63,0.83 696.63,64.33 696.63,132.06 727.44,132.06 727.44,0.83 "/>
<polygon class="st1" points="119.29,0.83 80.68,0.83 33.05,62.96 32.66,63.46 33.63,64.71 85.36,132.05 123.04,132.06 69.73,63.01
"/>
<polygon class="st1" points="1.19,132.06 32,132.06 32,64.33 32,0.83 1.19,0.83 "/>
<polygon class="st1" points="205.57,0.83 184.68,0.83 174.45,0.83 125.89,132.06 157.95,132.06 195.13,29.62 213.26,79.59
185.6,106.72 223.1,106.72 232.3,132.06 264.35,132.06 215.8,0.83 "/>
<polygon class="st1" points="544.27,0.83 523.37,0.83 513.14,0.83 464.59,132.06 496.65,132.06 533.82,29.62 551.95,79.59
524.3,106.72 561.8,106.72 570.99,132.06 603.05,132.06 554.49,0.83 "/>
</g>
</svg>